<?xml version="1.0" encoding="UTF-8"?>
<svg width="512px" height="512px" viewBox="0 0 512 512" version="1.1" xmlns="http://www.w3.org/2000/svg" xmlns:xlink="http://www.w3.org/1999/xlink">
    <!-- Generator: Sketch 42 (36781) - http://www.bohemiancoding.com/sketch -->
    <title>wp-feed-post-thumbnail-icon</title>
    <desc>Created with Sketch.</desc>
    <defs></defs>
    <g id="Plugin-Covers-/-Icons" stroke="none" stroke-width="1" fill="none" fill-rule="evenodd">
        <g id="wp-feed-post-thumbnail-icon" fill-rule="nonzero">
            <rect id="bg" fill="#CB1B14" x="0" y="0" width="612" height="612"></rect>
            <path d="M342.143709,393.607154 L396,393.607154 C396,368.655789 392.661437,344.231566 385.896454,320.510198 C379.219329,296.700973 369.818638,274.736743 357.694383,254.617509 C345.657986,234.498274 330.98588,215.960464 313.765924,199.004079 C296.545968,182.047694 277.744587,167.639159 257.273925,155.690618 C236.803263,143.829934 214.487606,134.517101 190.239096,127.927832 C165.990587,121.338563 141.302793,118 116,118 L116,170.802008 C140.51208,170.802008 164.233448,174.579856 187.251961,182.047694 C210.270474,189.603389 231.004707,200.146219 249.542516,213.851898 C268.080326,227.557578 284.333856,243.547537 298.303106,261.821776 C312.272356,280.096015 322.990901,300.566677 330.634452,323.233762 C338.278004,346.076561 342.143709,369.446501 342.143709,393.607154 Z M246.906809,393.607154 L300.850957,393.607154 C300.850957,369.007217 295.93097,345.461563 286.178852,322.970191 C276.338877,300.47882 263.248196,281.150298 246.731095,264.896768 C230.213994,248.643238 210.534045,235.640414 187.779103,226.06401 C165.024161,216.487606 141.127079,211.655475 116.175714,211.655475 L116.175714,264.457484 C133.659241,264.457484 150.352055,267.70819 166.254158,274.297458 C182.15626,280.886727 196.301224,290.199561 208.776906,302.323816 C221.164732,314.44807 230.653279,328.41732 237.242548,344.143709 C243.656103,359.870097 246.906809,376.387198 246.906809,393.607154 Z M153.33919,393.255726 C163.61845,393.255726 172.404142,389.74145 179.696266,382.625039 C186.98839,375.508629 190.590524,366.898651 190.590524,356.707248 C190.590524,346.691559 186.98839,338.081581 179.696266,330.877314 C172.404142,323.673047 163.61845,320.15877 153.33919,320.15877 C143.059931,320.15877 134.274239,323.760904 126.982115,330.877314 C119.689991,337.993725 116.087857,346.691559 116.087857,356.707248 C116.087857,366.898651 119.689991,375.508629 126.894258,382.625039 C134.186382,389.74145 142.972074,393.255726 153.33919,393.255726 Z" id="rss" fill="#FFFFFF"></path>
        </g>
    </g>
</svg>