<?xml version="1.0" encoding="utf-8"?>
<!-- Generator: Adobe Illustrator 18.1.1, SVG Export Plug-In . SVG Version: 6.00 Build 0)  -->
<!DOCTYPE svg PUBLIC "-//W3C//DTD SVG 1.1//EN" "http://www.w3.org/Graphics/SVG/1.1/DTD/svg11.dtd">
<svg version="1.1" id="Layer_1" xmlns="http://www.w3.org/2000/svg" xmlns:xlink="http://www.w3.org/1999/xlink" x="0px" y="0px"
	 viewBox="0 90 612 612" enable-background="new 0 90 612 612" xml:space="preserve">
<rect y="90" fill="#E41B13" width="612" height="612"/>
<path fill="#FFFFFF" d="M404,552.8h61.3c0-28.4-3.8-56.2-11.5-83.2c-7.6-27.1-18.3-52.1-32.1-75c-13.7-22.9-30.4-44-50-63.3
	c-19.6-19.3-41-35.7-64.3-49.3c-23.3-13.5-48.7-24.1-76.3-31.6s-55.7-11.3-84.5-11.3v60.1c27.9,0,54.9,4.3,81.1,12.8
	c26.2,8.6,49.8,20.6,70.9,36.2c21.1,15.6,39.6,33.8,55.5,54.6s28.1,44.1,36.8,69.9C399.6,498.7,404,525.3,404,552.8z M295.6,552.8
	H357c0-28-5.6-54.8-16.7-80.4c-11.2-25.6-26.1-47.6-44.9-66.1c-18.8-18.5-41.2-33.3-67.1-44.2s-53.1-16.4-81.5-16.4v60.1
	c19.9,0,38.9,3.7,57,11.2s34.2,18.1,48.4,31.9c14.1,13.8,24.9,29.7,32.4,47.6C291.9,514.4,295.6,533.2,295.6,552.8z M189.1,552.4
	c11.7,0,21.7-4,30-12.1s12.4-17.9,12.4-29.5c0-11.4-4.1-21.2-12.4-29.4s-18.3-12.2-30-12.2c-11.7,0-21.7,4.1-30,12.2
	s-12.4,18-12.4,29.4c0,11.6,4.1,21.4,12.3,29.5C167.3,548.4,177.3,552.4,189.1,552.4z"/>
</svg>
